<?xml version="1.0" encoding="UTF-8"?>
<svg xmlns="http://www.w3.org/2000/svg" xmlns:xlink="http://www.w3.org/1999/xlink" width="228px" height="90px" viewBox="0 0 228 90" version="1.1">
  <title>Group</title>
  <defs>
    <polygon id="path-1" points="0.2251 0.015 80.2381 0.015 80.2381 32.3689 0.2251 32.3689"></polygon>
  </defs>
  <g id="Symbols" stroke="none" stroke-width="1" fill="none" fill-rule="evenodd">
    <g id="footer" transform="translate(-143.000000, -80.000000)">
      <g id="Group" transform="translate(143.000445, 80.985300)">
        <path d="M141.603355,34.9063 C141.215355,33.1403 140.721355,31.4143 140.130355,29.7333 L140.139355,36.4823 L141.603355,34.9063 Z" id="Fill-1" fill="#3B605C"></path>
        <g id="Group-5" transform="translate(57.999555, 0.000000)">
          <mask id="mask-2" fill="white">
            <use xlink:href="#path-1"></use>
          </mask>
          <g id="Clip-4"></g>
          <path d="M2.1851,27.3029 L2.1911,32.3689 C7.3201,16.3169 22.3461,4.6829 40.1021,4.6599 C55.1721,4.6409 68.2971,12.9909 75.0841,25.3219 C75.3971,25.1819 75.7421,25.1009 76.1081,25.1009 L79.6191,25.0959 L79.6221,25.0959 C79.8321,25.0959 80.0381,25.1249 80.2381,25.1759 C73.0351,10.2679 57.7611,-0.0081 40.0961,0.0148614689 C22.5961,0.0369 7.4721,10.1609 0.2251,24.8619 C1.3451,25.1109 2.1831,26.1079 2.1851,27.3029" id="Fill-3" fill="#3B605C" mask="url(#mask-2)"></path>
        </g>
        <path d="M140.162155,54.5565 C140.164155,55.9405 139.043155,57.0635 137.660155,57.0655 L135.978155,57.0675 C130.722155,72.9015 115.804155,84.3315 98.2041551,84.3545 C80.0371551,84.3775 64.6951551,72.2395 59.8781551,55.6225 C59.4451551,56.3665 58.6401551,56.8695 57.7171551,56.8705 L55.4031551,56.8735 C60.7671551,75.4505 77.9081551,89.0255 98.2101551,88.9995373 C119.842155,88.9725 137.846155,73.5095 141.824155,53.0445 L140.157155,50.9945 L140.162155,54.5565 Z" id="Fill-6" fill="#3B605C"></path>
        <path d="M98.1085551,10.0057713 C83.1855551,10.0248 70.4875551,19.5168 65.6945551,32.7848 C67.2125551,32.0878 68.8655551,31.7178 70.5745551,31.7158 L70.5925551,31.7158 L70.5925551,31.7158 C71.1185551,31.7158 71.6415551,31.7548 72.1605551,31.8258 C76.8535551,22.2248 86.7085551,15.6058 98.1155551,15.5908 C109.790555,15.5758 119.857555,22.4838 124.436555,32.4398 C124.789555,32.2558 125.182555,32.1548 125.587555,32.1548 L129.099555,32.1498 L129.102555,32.1498 C129.624555,32.1498 130.128555,32.3148 130.548555,32.6128 C125.697555,19.4028 112.998555,9.9868 98.1085551,10.0057713" id="Fill-8" fill="#3B605C"></path>
        <path d="M98.1969551,79.0088284 C112.939955,78.9898 125.509955,69.7248 130.432955,56.7068 C130.052955,56.9388 129.608955,57.0758 129.130955,57.0768 L125.619955,57.0808 L125.616955,57.0808 C125.170955,57.0808 124.738955,56.9598 124.359955,56.7398 C119.756955,66.5828 109.773955,73.4088 98.1899551,73.4238 C86.7449551,73.4378 76.8459551,66.8018 72.1469551,57.1618 C71.6389551,57.2308 71.1269551,57.2698 70.6119551,57.2698 L70.5949551,57.2698 C68.8469551,57.2698 67.1839551,56.8818 65.6799551,56.1848 C70.4709551,69.5078 83.2259551,79.0278 98.1969551,79.0088284" id="Fill-10" fill="#3B605C"></path>
        <path d="M85.1521551,55.8427 C84.6951551,56.4457 83.9741551,56.8367 83.1591551,56.8377 L77.8221551,56.8447 C81.9991551,63.7137 89.5571551,68.2967 98.1831551,68.2857198 C106.511155,68.2747 113.832155,63.9837 118.071155,57.4977 C115.917155,57.1927 113.923155,56.1187 112.297155,54.3817 C109.182155,58.8347 104.022155,61.7527 98.1751551,61.7607 C92.9791551,61.7667 88.3201551,59.4727 85.1521551,55.8427" id="Fill-12" fill="#3B605C"></path>
        <path d="M98.1223551,20.728979 C89.5803551,20.74 82.0963551,25.255 77.9133551,32.024 L83.1273551,32.017 L83.1313551,32.017 C83.9913551,32.017 84.7513551,32.452 85.2023551,33.114 C88.3593551,29.528 92.9783551,27.261 98.1303551,27.254 C104.003355,27.247 109.191355,30.177 112.313355,34.655 C113.942355,32.923 115.940355,31.857 118.100355,31.562 C113.854355,25.032 106.490355,20.718 98.1223551,20.728979" id="Fill-14" fill="#3B605C"></path>
        <path d="M119.876555,39.6504 C118.528555,39.6524 117.022555,41.7414 117.026547,44.5354 C117.029555,47.3274 118.539555,49.4134 119.887555,49.4134 L119.888555,49.4134 C120.486555,49.4124 121.114555,49.0014 121.628555,48.3014 C122.274555,47.4214 122.741555,46.0844 122.739561,44.5284 C122.737555,42.9914 122.278555,41.6694 121.641555,40.7904 C121.121555,40.0724 120.483555,39.6504 119.876555,39.6504" id="Fill-16" fill="#3B605C"></path>
        <path d="M9.02705509,50.0978 C7.30505509,50.0998 6.78205509,49.1628 6.78105509,48.3688 C6.78005509,47.5748 6.75405509,27.3718 6.75405509,27.3718 L0.332055093,27.3798 C0.332055093,27.3798 -0.00494490729,45.6358 3.55271368e-15,49.3158 C0.00405509271,52.9958 2.31505509,54.4358 5.05705509,54.4318083 C7.79905509,54.4288 9.74705509,54.4258 9.74705509,54.4258 L9.74205509,50.0968 L9.02705509,50.0978 Z" id="Fill-18" fill="#F2F7F2"></path>
        <polygon id="Fill-20" fill="#F2F7F2" points="22.3152551 44.6881 16.9622551 34.6081 9.72225509 34.6171 18.8332551 52.0451 14.1852551 61.8681 21.8042551 61.8581 34.3322551 34.5851 27.0922551 34.5951"></polygon>
        <path d="M46.8386551,50.1470027 C44.1706551,50.15 42.0046551,47.635 42.0006495,44.53 C41.9966551,41.424 44.1566551,38.903 46.8246551,38.8999948 C48.7296551,38.897 50.3786551,40.18 51.1666551,42.045 L51.1736551,46.99 C50.3896551,48.857 48.7446551,50.145 46.8386551,50.1470027 L46.8386551,50.1470027 Z M57.6786551,27.306 L51.1486551,27.315 L51.1596551,36.469 C49.5046551,35.081 47.4126551,34.251 45.1376551,34.254 C39.7836551,34.261 35.4486551,38.865 35.4556466,44.538 C35.4626551,50.211 39.8096551,54.804 45.1636551,54.797008 C47.4386551,54.794 49.5286551,53.959 51.1806551,52.567 L51.1826551,54.373 L57.7136551,54.365 L57.6786551,27.306 Z" id="Fill-22" fill="#F2F7F2"></path>
        <path d="M76.6096551,42.0127 L76.6156551,46.9577 C75.8326551,48.8247 74.1866551,50.1117 72.2816551,50.1147027 C69.6136551,50.1177 67.4476551,47.6027 67.4436495,44.4967 C67.4396551,41.3917 69.5986551,38.8707 72.2666551,38.8676948 C74.1726551,38.8647 75.8216551,40.1477 76.6096551,42.0127 M60.898644,44.5057 C60.9056551,50.1777 65.2516551,54.7717 70.6066551,54.764708 C72.8816551,54.7617 74.9706551,53.9267 76.6226551,52.5337 L76.6256551,54.3407 L83.1556551,54.3327 L83.1306551,34.5227 L76.5996551,34.5317 L76.6026551,36.4367 C74.9466551,35.0487 72.8556551,34.2187 70.5806551,34.2216919 C65.2256551,34.2287 60.8906551,38.8327 60.898644,44.5057" id="Fill-24" fill="#F2F7F2"></path>
        <path d="M95.3577551,39.8453 C96.9207551,38.7573 99.0257551,38.7543 100.591755,39.8383 C101.281755,40.3163 101.856755,40.9443 102.274755,41.6733 L108.570755,41.6653 C108.567755,39.6423 107.437755,38.1463 106.002755,36.8273 C103.466755,34.4973 100.415755,34.1833 97.6547551,34.1872627 C96.2857551,34.1883 94.9747551,34.4103 93.7607551,34.8153 C92.7207551,35.1623 91.7517551,35.6433 90.8797551,36.2363 C90.7347551,36.3353 90.5927551,36.4363 90.4527551,36.5413 C87.9377551,38.4283 86.3367551,41.2823 86.3407476,44.4733 C86.3437551,46.6383 87.0867551,48.6453 88.3507551,50.3003 C88.5217551,50.5233 88.7017551,50.7413 88.8907551,50.9513 C88.9107551,50.9743 88.9307551,50.9973 88.9517551,51.0193 C89.1217551,51.2053 89.3007551,51.3833 89.4847551,51.5583 C89.7957551,51.8533 90.1247551,52.1333 90.4727551,52.3933 C90.6127551,52.4983 90.7557551,52.5993 90.9007551,52.6983 C91.1917551,52.8943 91.4937551,53.0793 91.8057551,53.2503 C92.1167551,53.4213 92.4387551,53.5793 92.7687551,53.7233 C94.2547551,54.3703 95.9207551,54.7323 97.6797551,54.7293185 L97.6797551,54.7293185 L97.6807551,54.7293185 L97.6807551,54.7293185 C97.6807551,54.7293185 97.6807551,54.7293185 97.6817551,54.7293185 C100.442755,54.7263 103.491755,54.4043 106.021755,52.0673 C107.453755,50.7453 108.579755,49.2463 108.576761,47.2233 L102.281755,47.2313 C101.865755,47.9613 101.291755,48.5913 100.603755,49.0703 C99.0407551,50.1593 96.9357551,50.1613 95.3697551,49.0773 C93.9057551,48.0633 92.9457551,46.3763 92.9437551,44.4643 C92.9417551,42.5533 93.8967551,40.8633 95.3577551,39.8453" id="Fill-26" fill="#F2F7F2"></path>
        <path d="M186.044755,44.4309 C185.277755,43.8829 183.826755,43.3369 181.611755,42.7629 L179.613755,42.2419 C178.767755,42.0219 178.122755,41.7659 177.694755,41.4799 C176.975755,41.0139 176.624755,40.4129 176.623755,39.6429 C176.623755,38.9369 176.885755,38.3849 177.427755,37.9539 C177.976755,37.5189 178.808755,37.2969 179.901755,37.2959 C181.547755,37.2929 182.712755,37.6949 183.357755,38.4769 C183.760755,39.0409 183.992755,39.6749 184.046755,40.3619 L184.061755,40.5549 L187.259755,40.5509 L187.262755,40.3459 C187.283755,39.0559 186.904755,37.8389 186.135755,36.7249 C184.906755,34.9669 182.888755,34.0779 180.136755,34.0818866 C178.033755,34.0839 176.333755,34.6759 175.082755,35.8389 C173.826755,37.0069 173.191755,38.5519 173.193755,40.4319 C173.196755,42.0499 173.881755,43.3329 175.229755,44.2449 C175.972755,44.7609 177.132755,45.2309 178.676755,45.6419 L181.070755,46.2879 C182.328755,46.6279 183.177755,46.9289 183.591755,47.1789 C184.213755,47.5739 184.516755,48.1359 184.517755,48.8959 C184.518755,49.9219 184.134755,50.6579 183.342755,51.1459 C182.529755,51.6469 181.570755,51.9019 180.494755,51.9029 C178.691755,51.9049 177.413755,51.4079 176.696755,50.4249 C176.305755,49.8829 176.062755,49.0809 175.975755,48.0419 L175.959755,47.8499 L172.700755,47.8539 L172.709755,48.0719 C172.791755,50.0339 173.407755,51.7049 174.541755,53.0389 C175.685755,54.3849 177.638755,55.0659 180.346755,55.0629099 C182.861755,55.0589 184.764755,54.4039 186.004755,53.1149 C187.241755,51.8289 187.868755,50.2809 187.865766,48.5129 C187.863755,46.6699 187.250755,45.2969 186.044755,44.4309" id="Fill-28" fill="#F2F7F2"></path>
        <polygon id="Fill-30" fill="#F2F7F2" points="199.701355 34.5655 196.406355 34.5695 196.398355 28.7495 192.887355 28.7535 192.894355 34.5745 189.599355 34.5785 189.603355 37.5805 192.898355 37.5765 192.920355 54.4885 196.431355 54.4845 196.410355 37.5725 199.705355 37.5675"></polygon>
        <polygon id="Fill-32" fill="#F2F7F2" points="202.659655 34.5618 202.684655 54.4768 206.196655 54.4718 206.171655 34.5568"></polygon>
        <polygon id="Fill-34" fill="#F2F7F2" points="206.162155 27.5141 202.650155 27.5191 202.656155 31.6271 206.167155 31.6231"></polygon>
        <polygon id="Fill-36" fill="#F2F7F2" points="227.999555 54.4921 218.859555 43.2481 226.960555 34.5301 222.522555 34.5361 214.888555 42.7511 214.868555 27.5031 211.357555 27.5071 211.391555 54.4651 214.903555 54.4611 214.889555 43.8291 223.561555 54.4981"></polygon>
        <polygon id="Fill-38" fill="#F2F7F2" points="149.713455 34.6296 145.276455 34.6356 137.641455 42.8506 137.621455 27.6016 134.110455 27.6066 134.144455 54.5646 137.656455 54.5596 137.642455 43.9286 146.315455 54.5966 150.752455 54.5916 141.612455 43.3466"></polygon>
        <path d="M119.892255,51.9187036 C116.931255,51.9227 114.526255,48.6187 114.520247,44.5387 C114.515255,40.4587 116.912255,37.1487 119.873255,37.1446964 C122.835255,37.1407 125.239255,40.4447 125.245263,44.5247 C125.250255,48.6047 122.853255,51.9147 119.892255,51.9187036 M119.328255,33.9796954 C114.799255,33.9857 111.133255,38.7147 111.141242,44.5427 C111.148255,50.3707 114.826255,55.0907 119.355255,55.0847057 C121.866255,55.0817 124.111255,53.6247 125.612255,51.3347 L125.616255,54.5757 L129.128255,54.5707 L129.102255,34.6557 L125.591255,34.6607 L125.595255,37.7137 C124.088255,35.4277 121.839255,33.9767 119.328255,33.9796954" id="Fill-40" fill="#F2F7F2"></path>
        <path d="M165.284555,34.6096 L165.300555,47.0946 C165.303555,49.5666 163.302555,51.5726 160.830555,51.5756 C158.358555,51.5786 156.352555,49.5776 156.349555,47.1056 L156.333555,34.6206 L152.821555,34.6256 L152.837555,47.1106 C152.841555,49.8626 154.236555,52.2886 156.357555,53.7216 C157.635555,54.5856 159.176555,55.0896 160.835555,55.0876059 C162.493555,55.0856 164.033555,54.5776 165.308555,53.7106 C167.426555,52.2716 168.815555,49.8426 168.81256,47.0896 L168.796555,34.6056 L165.284555,34.6096 Z" id="Fill-42" fill="#F2F7F2"></path>
      </g>
    </g>
  </g>
</svg>
